<svg xmlns="http://www.w3.org/2000/svg" xmlns:xlink="http://www.w3.org/1999/xlink" version="1.1" x="0px" y="0px" viewBox="0 0 100 125" enable-background="new 0 0 100 100" xml:space="preserve"><g display="none"><g display="inline"><path d="M87.8,29.7c-0.5,0-1,0.1-1.4,0.3c-0.5-2.5-1.4-4.9-2.5-7.2C80.8,16.5,75.4,11.5,69,8.5    c0.7,0,1.5,0.2,1.9,0.2c0.8,0,1.8-0.1,2.6-0.3C75,8,76.2,7.3,77.2,6.2c0.8-0.8-0.5-1.9-1.3-1.1c-2.2,2-4.6,1.7-7.3,1.8    c-0.1-0.1-0.3-0.2-0.4-0.3c1.5-1.1,2.7-2.6,3.4-4.4c0.4-0.9-0.8-1.6-1.4-0.9c-1.4,1.3-2.7,2.6-4.6,3.3c-1.5,0.6-3.1,0.7-4.7,1.1    c-5.7-1.1-11.7-0.7-17,1.6c-10.1,2-19.2,9.2-23.2,18.9c-0.7,1.7-1.2,3.6-1.6,5.4c-2.2-0.3-4.4-0.1-6.4,0.6    c-3.2,1.1-5.2,5.7-0.9,6.8c0.9,0.2,1.1-1.1,0.2-1.4c-0.3-2.4,0.4-3.8,2.1-4c0.6-0.2,1.2-0.3,1.9-0.4c1-0.1,1.9-0.1,2.8,0    c-1.7,12.1,3.5,25.2,13.4,32.3c-0.7,3.3-2.3,6.2-1.6,9.7c0.5,2.4,2,4.4,4,5.8c5.1,3.6,13.1,4.9,19.2,5.1c3,0.1,6-0.2,8.9-1.1    c0,0,0,0,0,0c1.4,0.7,1.7,4.1,1.6,5.4c0,0.3,0.2,0.6,0.5,0.7c0.4,1.4-1.4,8.4,1.6,7.7c1.2-0.3,1.4-2,1.7-3c0,0,0-0.1,0-0.1    c0.4,1,1,2.5,2.3,2.3c0.9-0.1,1.3-0.9,1.5-1.8c0.1,0.3,0.1,0.5,0.2,0.8c0.4,0.8,1.3,1.2,2,0.5c1.1-1,1.4-3.5,1.6-4.9    c0-0.2,0-0.4,0-0.5c0,0.1,0,0.1,0.1,0.2c0.2,0.8,0.3,2.1,0.7,2.8c0.6,0.9,1.4,0.7,2-0.1c0.5-0.8,0.7-2.3,0.8-3.2    c0.1-0.4,0.1-0.8,0.1-1.2c0.3,0.5,1.1,0.6,1.4,0c0.6-1.4,0.6-3.2,0.2-4.7c-0.4-1.6-1.6-2.4-2.2-3.8c-0.3-0.5-0.6-0.8-0.9-0.8    c-0.5-2.1-2.5-3.8-4.4-5.1c1.8-3.7,2-7.9,0.2-11.7c0.6-0.4,1.1-0.9,1.6-1.3c8.7-7.7,12.9-20,11.1-31.5c1.9-0.7,2,1,2.3,2.4    c0.1,0.5,0.8,0.9,1.2,0.4C91.5,32.7,90.3,29.7,87.8,29.7z M64.9,9.5c0,0.1,0,0.2,0,0.3c-1-0.4-2.1-0.8-3.1-1.2    C62.9,8.9,63.9,9.2,64.9,9.5z M52.3,8.4c-0.1,0.4,0,0.9,0.5,1.2c0.1,0.1,0.2,0.1,0.3,0.2c-0.8-0.5-1.5-1-2-1.4    C51.5,8.4,51.9,8.4,52.3,8.4z M47.8,8.9c0,0.2,0.1,0.5,0.3,0.7c0.1,0.1,0.2,0.2,0.2,0.3c-0.5-0.2-1-0.5-1.5-0.7    C47.2,9,47.5,9,47.8,8.9z M42.7,10c0.3,0.3,0.7,0.4,1.2,0.2c0.2-0.1,0.3-0.1,0.5-0.2c2.3,1.6,4.7,3.2,7.1,4.6    c0.8,0.5,1.8-0.2,1.9-1.1c2.3,1.4,4.7,2.4,6.4,1.3c0.5-0.3,0.7-1,0.6-1.5c0.5,0.2,1,0.5,1.4,0.7c1.4,0.6,2.4,1.4,3.9,1    c0.5-0.1,0.9-0.6,0.9-1.1c0-0.3,0-0.6-0.1-0.9c1.6,0.5,3.3,1,4.9,1.4c0.6,0.1,1.1-0.3,1.3-0.8c2.4,1.7,4.5,3.7,6.3,6.1    C81.7,23,83.3,26.9,84,31c-0.3,0.2-0.7,0.4-1,0.6c-0.8,0.4-1.6,0.9-2.4,1.4c-0.5,0.3-1.2,0.9-1.9,1.3c-0.3-2.9-1.3-5.6-3.2-7.3    c-0.2-0.2-0.4-0.2-0.6-0.3c-3.3-4-10.4-4.1-14.1-0.6c-2.5,2.3-3.5,5.7-3.4,9.1c-0.7-0.8-1.7-1.3-2.7-1.5c-1.5-0.3-3-0.1-4.4,0.5    c-0.7,0.3-1.2,0.7-1.9,1.2c-0.2,0.2-0.5,0.4-0.7,0.6c-0.3-4-2.3-7.8-5.5-10.3c-0.4-0.3-0.9-0.1-1.1,0.2c-3.8-2.3-8.7-2.4-12,1.5    c-1.7,2-2.7,4.5-3,7.2c-1.2-1.1-2.8-2-4.4-2.5C23.8,21.2,32.5,13.2,42.7,10z M75.7,40.8C74,47.9,66.1,49,61.9,43    c-2.7-3.9-3.5-10.5-0.4-14.4c3.7-4.7,8.3-2.5,12.4-0.4c0,0.1,0.1,0.1,0.1,0.2C76.7,32.2,76.8,36.3,75.7,40.8z M45.8,38.2    c0,0.5-0.1,0.9-0.2,1.4c-1.4,6.2-9,9.7-14.1,5.3c-3.9-3.4-4.3-9.5-2.1-13.9c2.7-5.5,8.2-5.2,12.7-2.8c2.1,2.8,3.8,5.8,3.8,9.3    C45.7,37.6,45.7,37.9,45.8,38.2z M38.2,80.5c-2.3-0.9-4.8-2.3-5.4-4.9c-0.7-2.6-0.2-6.2,1.2-8.7c1.5,0.9,3.1,1.7,4.7,2.4    c-0.5,2.2-1.7,4.1-1.6,6.4C37.1,77.5,37.5,79,38.2,80.5z M48,77.4c0,1.8-0.1,3.7-0.1,5.5c-2.8-0.4-5.6-1.1-8.2-1.9    c-0.9-3-1.5-8.8,0.7-11.1c2.4,0.9,5,1.4,7.5,1.7C48.6,73.3,48,75.7,48,77.4z M58.7,83c-1.7,0.3-3.3,0.5-4.9,0.5    c-1.5,0-3-0.2-4.5-0.3c0.2-1.9,0.3-3.8,0.4-5.7c0.1-1.7-0.2-4,0.4-5.6c3.3,0.2,6.6-0.1,9.9-0.8c1,1.4,0.9,4.2,0.9,5.7    c0,2.3-0.6,4-2,5.8C58.8,82.7,58.7,82.9,58.7,83z M60.7,82.5c0.8-1.9,1.5-3.9,1.7-5.9c0.1-1,0-2.1-0.1-3.1    c-0.1-0.9-0.5-1.9-0.7-2.8c2-0.5,4-1.2,5.9-2.1c1.3,1.3,1.5,4.5,1.4,5.9c-0.2,1.8-0.7,3.4-1.7,4.8C65.3,80.7,63,81.8,60.7,82.5z     M70.3,71.1C70.1,70,69.3,69,68.8,68c0.9-0.5,1.9-1,2.7-1.6c1.5,4,0.6,7.5-1.5,10.2c0.3-0.8,0.5-1.7,0.5-2.6    C70.6,73,70.5,72.1,70.3,71.1z M66.7,96.6c-0.1,0.3-0.2,1.4-0.1,0.3c0-0.4-0.1-0.8-0.1-1.3c-0.1-1.2-0.1-3.1,0.6-4.1    c0.1-0.1,0.1-0.2,0.2-0.3c0,0,0.1,0,0.1,0C67.3,93.1,67,94.8,66.7,96.6z M70.9,93.4c0,0.4-0.2,3.1-0.6,2.9c-0.5-0.3-0.7-2-0.8-2.5    c-0.2-0.9-0.2-1.7-0.3-2.6c0.1-0.1,0.1-0.2,0.2-0.2c0.4-0.1,0.9-0.2,1.3-0.4C70.9,91.4,70.9,92.4,70.9,93.4z M73.9,95.5    c-0.1,0.2-0.1,0.4-0.2,0.5c-0.1-0.6-0.1-1.1-0.2-1.7c-0.2-1.1-1-3.4-0.5-4.5c0.1-0.2,0.1-0.4,0.2-0.6c0.3-0.2,0.6-0.4,0.9-0.6    c0.1,0.9,0.4,1.9,0.4,2.8C74.5,93,74.3,94.3,73.9,95.5z M78.1,84.2c1.7,1,1.9,3.5,1.7,5.4c0-0.2,0-0.5-0.1-0.7    c-0.3-1.5-1-2.7-2.1-3.6C77.8,84.9,77.9,84.5,78.1,84.2z M75.7,88.2c0.1-0.3,0.1-0.5,0.1-0.8c0.3-0.3,0.6-0.6,0.9-0.9    c1.3,1,1.8,2.4,1.8,4c0,0.6-0.1,2.5-0.5,3.6c-0.2-0.8-0.4-1.8-0.7-2.6C77.1,91,75.6,88.5,75.7,88.2z M75.3,80.9    c0.9,2-0.1,3.5-1.5,4.9c-2,1.9-4.8,3.1-7.5,3.6c-0.1-0.7-0.2-1.4-0.4-2.2c-0.2-0.8-0.9-1.8-1.1-2.7c2.4-1,4.6-2.3,6.4-4.2    c0.7-0.7,1.2-1.4,1.7-2.2C73.7,78.9,74.8,80,75.3,80.9z M77.5,57.1C68.7,68.4,52,72.2,39,66.3C26.8,60.8,19.6,47,21.4,33.9    c1.6,0.5,3.1,1.2,4.6,1.8c-0.2,3.6,0.9,7.4,3.3,9.9c4.6,4.9,12.6,4.3,16.4-1.3c1.1-1.6,1.7-3.3,1.9-5.1c0.3-0.1,0.6-0.4,0.6-1    c0.1-0.6,1.4-1.4,1.7-1.7c1-0.6,2-0.9,3.2-0.9c2.4,0.1,2.8,1.5,4,3.2c0.2,0.2,0.5,0.3,0.7,0.3c0.6,2.3,1.6,4.4,3,6    c3.8,4.5,11.4,5.8,15.2,0.5c1.7-2.3,2.6-5.9,2.7-9.4c0.9-1.5,4-2.8,5.4-3.4C85.3,41.4,82.7,50.4,77.5,57.1z"/><path d="M42.8,16.7c-0.7,0.1-1.5,0.1-2.2,0.2c-0.3,0-0.6,0-0.9,0.1c0.2-0.3,0.4-0.7,0.5-0.8c0.5-0.7,0.6-1.2,1-1.9    c0.2-0.3-0.2-0.5-0.4-0.4c-0.7,0.4-0.9,0.3-1.5,0.8c-0.5,0.4-0.9,0.9-1.3,1.4c-0.5,0.6-1.1,1.2-0.8,2.1c0.3,0.7,0.9,0.9,1.5,0.9    c0.7,0,1.5-0.1,2.3-0.2c-0.7,1-1.4,1.9-1.8,3c-0.3,0.8,0.6,1.4,1.2,0.8c1.3-1.2,2-3,3.1-4.4C44.1,17.6,43.6,16.6,42.8,16.7z"/><path d="M39.3,37c0-0.2,0-0.3,0-0.5c0-0.3,0-0.5-0.1-0.8c-0.1-0.3-0.2-0.5-0.4-0.7c-0.1-0.2-0.3-0.4-0.5-0.5    c-0.3-0.2-0.6-0.3-1-0.4c0,0,0,0,0,0c0,0-0.1,0-0.1,0c-0.6-0.1-1.2,0.2-1.5,0.7c-0.2,0.1-0.3,0.3-0.4,0.5    c-0.1,0.4-0.2,0.5-0.1,0.3c0.1-0.2,0-0.1-0.1,0.3c0,0.2,0,0.4,0,0.6c0.1,0.7,0.2,1.4,0.9,1.8c0.3,0.2,0.6,0.4,0.9,0.4    c0.6,0.1,1-0.1,1.5-0.4c0.3-0.2,0.6-0.5,0.8-0.8c0-0.1,0.1-0.3,0.1-0.4C39.2,37.5,39.2,37.5,39.3,37z"/><path d="M69.8,36c0,0-0.3-0.6-0.4-0.7c0,0-0.1-0.1-0.1-0.2c0,0,0,0-0.1-0.1c-0.1-0.1-0.3-0.2-0.5-0.3    c-0.4-0.1-0.5-0.1-0.3-0.1c0.1,0,0.1,0,0,0c-0.3-0.2-0.7-0.2-1.1-0.1c-0.7,0.1-1.3,0.6-1.5,1.2c-0.2,0.3-0.3,0.7-0.3,1.1    c0.1,1.5,1.9,2.6,3.3,1.7c0.5-0.3,0.9-1,1-1.5C70,36.7,69.9,36.3,69.8,36z"/><path d="M56.4,51.1c-0.2-0.2-0.5-0.1-0.6,0.1c-1,1.1-0.7,5.1-3.2,4.2c-1.9-0.7-2.5-2.5-3.4-4.1c0-0.1-0.2-0.1-0.2,0    c-0.8,2.5,1.7,5.9,4.3,6c1.4,0.1,2.4-1,3.1-2.2C56.9,54,57.5,52,56.4,51.1z"/></g><g display="inline"><path d="M87.8,29.7c-0.5,0-1,0.1-1.4,0.3c-0.5-2.5-1.4-4.9-2.5-7.2C80.8,16.5,75.4,11.5,69,8.5    c0.7,0,1.5,0.2,1.9,0.2c0.8,0,1.8-0.1,2.6-0.3C75,8,76.2,7.3,77.2,6.2c0.8-0.8-0.5-1.9-1.3-1.1c-2.2,2-4.6,1.7-7.3,1.8    c-0.1-0.1-0.3-0.2-0.4-0.3c1.5-1.1,2.7-2.6,3.4-4.4c0.4-0.9-0.8-1.6-1.4-0.9c-1.4,1.3-2.7,2.6-4.6,3.3c-1.5,0.6-3.1,0.7-4.7,1.1    c-5.7-1.1-11.7-0.7-17,1.6c-10.1,2-19.2,9.2-23.2,18.9c-0.7,1.7-1.2,3.6-1.6,5.4c-2.2-0.3-4.4-0.1-6.4,0.6    c-3.2,1.1-5.2,5.7-0.9,6.8c0.9,0.2,1.1-1.1,0.2-1.4c-0.3-2.4,0.4-3.8,2.1-4c0.6-0.2,1.2-0.3,1.9-0.4c1-0.1,1.9-0.1,2.8,0    c-1.7,12.1,3.5,25.2,13.4,32.3c-0.7,3.3-2.3,6.2-1.6,9.7c0.5,2.4,2,4.4,4,5.8c5.1,3.6,13.1,4.9,19.2,5.1c3,0.1,6-0.2,8.9-1.1    c0,0,0,0,0,0c1.4,0.7,1.7,4.1,1.6,5.4c0,0.3,0.2,0.6,0.5,0.7c0.4,1.4-1.4,8.4,1.6,7.7c1.2-0.3,1.4-2,1.7-3c0,0,0-0.1,0-0.1    c0.4,1,1,2.5,2.3,2.3c0.9-0.1,1.3-0.9,1.5-1.8c0.1,0.3,0.1,0.5,0.2,0.8c0.4,0.8,1.3,1.2,2,0.5c1.1-1,1.4-3.5,1.6-4.9    c0-0.2,0-0.4,0-0.5c0,0.1,0,0.1,0.1,0.2c0.2,0.8,0.3,2.1,0.7,2.8c0.6,0.9,1.4,0.7,2-0.1c0.5-0.8,0.7-2.3,0.8-3.2    c0.1-0.4,0.1-0.8,0.1-1.2c0.3,0.5,1.1,0.6,1.4,0c0.6-1.4,0.6-3.2,0.2-4.7c-0.4-1.6-1.6-2.4-2.2-3.8c-0.3-0.5-0.6-0.8-0.9-0.8    c-0.5-2.1-2.5-3.8-4.4-5.1c1.8-3.7,2-7.9,0.2-11.7c0.6-0.4,1.1-0.9,1.6-1.3c8.7-7.7,12.9-20,11.1-31.5c1.9-0.7,2,1,2.3,2.4    c0.1,0.5,0.8,0.9,1.2,0.4C91.5,32.7,90.3,29.7,87.8,29.7z M64.9,9.5c0,0.1,0,0.2,0,0.3c-1-0.4-2.1-0.8-3.1-1.2    C62.9,8.9,63.9,9.2,64.9,9.5z M52.3,8.4c-0.1,0.4,0,0.9,0.5,1.2c0.1,0.1,0.2,0.1,0.3,0.2c-0.8-0.5-1.5-1-2-1.4    C51.5,8.4,51.9,8.4,52.3,8.4z M47.8,8.9c0,0.2,0.1,0.5,0.3,0.7c0.1,0.1,0.2,0.2,0.2,0.3c-0.5-0.2-1-0.5-1.5-0.7    C47.2,9,47.5,9,47.8,8.9z M42.7,10c0.3,0.3,0.7,0.4,1.2,0.2c0.2-0.1,0.3-0.1,0.5-0.2c2.3,1.6,4.7,3.2,7.1,4.6    c0.8,0.5,1.8-0.2,1.9-1.1c2.3,1.4,4.7,2.4,6.4,1.3c0.5-0.3,0.7-1,0.6-1.5c0.5,0.2,1,0.5,1.4,0.7c1.4,0.6,2.4,1.4,3.9,1    c0.5-0.1,0.9-0.6,0.9-1.1c0-0.3,0-0.6-0.1-0.9c1.6,0.5,3.3,1,4.9,1.4c0.6,0.1,1.1-0.3,1.3-0.8c2.4,1.7,4.5,3.7,6.3,6.1    C81.7,23,83.3,26.9,84,31c-0.3,0.2-0.7,0.4-1,0.6c-0.8,0.4-1.6,0.9-2.4,1.4c-0.5,0.3-1.2,0.9-1.9,1.3c-0.3-2.9-1.3-5.6-3.2-7.3    c-0.2-0.2-0.4-0.2-0.6-0.3c-3.3-4-10.4-4.1-14.1-0.6c-2.5,2.3-3.5,5.7-3.4,9.1c-0.7-0.8-1.7-1.3-2.7-1.5c-1.5-0.3-3-0.1-4.4,0.5    c-0.7,0.3-1.2,0.7-1.9,1.2c-0.2,0.2-0.5,0.4-0.7,0.6c-0.3-4-2.3-7.8-5.5-10.3c-0.4-0.3-0.9-0.1-1.1,0.2c-3.8-2.3-8.7-2.4-12,1.5    c-1.7,2-2.7,4.5-3,7.2c-1.2-1.1-2.8-2-4.4-2.5C23.8,21.2,32.5,13.2,42.7,10z M75.7,40.8C74,47.9,66.1,49,61.9,43    c-2.7-3.9-3.5-10.5-0.4-14.4c3.7-4.7,8.3-2.5,12.4-0.4c0,0.1,0.1,0.1,0.1,0.2C76.7,32.2,76.8,36.3,75.7,40.8z M45.8,38.2    c0,0.5-0.1,0.9-0.2,1.4c-1.4,6.2-9,9.7-14.1,5.3c-3.9-3.4-4.3-9.5-2.1-13.9c2.7-5.5,8.2-5.2,12.7-2.8c2.1,2.8,3.8,5.8,3.8,9.3    C45.7,37.6,45.7,37.9,45.8,38.2z M38.2,80.5c-2.3-0.9-4.8-2.3-5.4-4.9c-0.7-2.6-0.2-6.2,1.2-8.7c1.5,0.9,3.1,1.7,4.7,2.4    c-0.5,2.2-1.7,4.1-1.6,6.4C37.1,77.5,37.5,79,38.2,80.5z M48,77.4c0,1.8-0.1,3.7-0.1,5.5c-2.8-0.4-5.6-1.1-8.2-1.9    c-0.9-3-1.5-8.8,0.7-11.1c2.4,0.9,5,1.4,7.5,1.7C48.6,73.3,48,75.7,48,77.4z M58.7,83c-1.7,0.3-3.3,0.5-4.9,0.5    c-1.5,0-3-0.2-4.5-0.3c0.2-1.9,0.3-3.8,0.4-5.7c0.1-1.7-0.2-4,0.4-5.6c3.3,0.2,6.6-0.1,9.9-0.8c1,1.4,0.9,4.2,0.9,5.7    c0,2.3-0.6,4-2,5.8C58.8,82.7,58.7,82.9,58.7,83z M60.7,82.5c0.8-1.9,1.5-3.9,1.7-5.9c0.1-1,0-2.1-0.1-3.1    c-0.1-0.9-0.5-1.9-0.7-2.8c2-0.5,4-1.2,5.9-2.1c1.3,1.3,1.5,4.5,1.4,5.9c-0.2,1.8-0.7,3.4-1.7,4.8C65.3,80.7,63,81.8,60.7,82.5z     M70.3,71.1C70.1,70,69.3,69,68.8,68c0.9-0.5,1.9-1,2.7-1.6c1.5,4,0.6,7.5-1.5,10.2c0.3-0.8,0.5-1.7,0.5-2.6    C70.6,73,70.5,72.1,70.3,71.1z M66.7,96.6c-0.1,0.3-0.2,1.4-0.1,0.3c0-0.4-0.1-0.8-0.1-1.3c-0.1-1.2-0.1-3.1,0.6-4.1    c0.1-0.1,0.1-0.2,0.2-0.3c0,0,0.1,0,0.1,0C67.3,93.1,67,94.8,66.7,96.6z M70.9,93.4c0,0.4-0.2,3.1-0.6,2.9c-0.5-0.3-0.7-2-0.8-2.5    c-0.2-0.9-0.2-1.7-0.3-2.6c0.1-0.1,0.1-0.2,0.2-0.2c0.4-0.1,0.9-0.2,1.3-0.4C70.9,91.4,70.9,92.4,70.9,93.4z M73.9,95.5    c-0.1,0.2-0.1,0.4-0.2,0.5c-0.1-0.6-0.1-1.1-0.2-1.7c-0.2-1.1-1-3.4-0.5-4.5c0.1-0.2,0.1-0.4,0.2-0.6c0.3-0.2,0.6-0.4,0.9-0.6    c0.1,0.9,0.4,1.9,0.4,2.8C74.5,93,74.3,94.3,73.9,95.5z M78.1,84.2c1.7,1,1.9,3.5,1.7,5.4c0-0.2,0-0.5-0.1-0.7    c-0.3-1.5-1-2.7-2.1-3.6C77.8,84.9,77.9,84.5,78.1,84.2z M75.7,88.2c0.1-0.3,0.1-0.5,0.1-0.8c0.3-0.3,0.6-0.6,0.9-0.9    c1.3,1,1.8,2.4,1.8,4c0,0.6-0.1,2.5-0.5,3.6c-0.2-0.8-0.4-1.8-0.7-2.6C77.1,91,75.6,88.5,75.7,88.2z M75.3,80.9    c0.9,2-0.1,3.5-1.5,4.9c-2,1.9-4.8,3.1-7.5,3.6c-0.1-0.7-0.2-1.4-0.4-2.2c-0.2-0.8-0.9-1.8-1.1-2.7c2.4-1,4.6-2.3,6.4-4.2    c0.7-0.7,1.2-1.4,1.7-2.2C73.7,78.9,74.8,80,75.3,80.9z M77.5,57.1C68.7,68.4,52,72.2,39,66.3C26.8,60.8,19.6,47,21.4,33.9    c1.6,0.5,3.1,1.2,4.6,1.8c-0.2,3.6,0.9,7.4,3.3,9.9c4.6,4.9,12.6,4.3,16.4-1.3c1.1-1.6,1.7-3.3,1.9-5.1c0.3-0.1,0.6-0.4,0.6-1    c0.1-0.6,1.4-1.4,1.7-1.7c1-0.6,2-0.9,3.2-0.9c2.4,0.1,2.8,1.5,4,3.2c0.2,0.2,0.5,0.3,0.7,0.3c0.6,2.3,1.6,4.4,3,6    c3.8,4.5,11.4,5.8,15.2,0.5c1.7-2.3,2.6-5.9,2.7-9.4c0.9-1.5,4-2.8,5.4-3.4C85.3,41.4,82.7,50.4,77.5,57.1z"/><path d="M42.8,16.7c-0.7,0.1-1.5,0.1-2.2,0.2c-0.3,0-0.6,0-0.9,0.1c0.2-0.3,0.4-0.7,0.5-0.8c0.5-0.7,0.6-1.2,1-1.9    c0.2-0.3-0.2-0.5-0.4-0.4c-0.7,0.4-0.9,0.3-1.5,0.8c-0.5,0.4-0.9,0.9-1.3,1.4c-0.5,0.6-1.1,1.2-0.8,2.1c0.3,0.7,0.9,0.9,1.5,0.9    c0.7,0,1.5-0.1,2.3-0.2c-0.7,1-1.4,1.9-1.8,3c-0.3,0.8,0.6,1.4,1.2,0.8c1.3-1.2,2-3,3.1-4.4C44.1,17.6,43.6,16.6,42.8,16.7z"/><path d="M39.3,37c0-0.2,0-0.3,0-0.5c0-0.3,0-0.5-0.1-0.8c-0.1-0.3-0.2-0.5-0.4-0.7c-0.1-0.2-0.3-0.4-0.5-0.5    c-0.3-0.2-0.6-0.3-1-0.4c0,0,0,0,0,0c0,0-0.1,0-0.1,0c-0.6-0.1-1.2,0.2-1.5,0.7c-0.2,0.1-0.3,0.3-0.4,0.5    c-0.1,0.4-0.2,0.5-0.1,0.3c0.1-0.2,0-0.1-0.1,0.3c0,0.2,0,0.4,0,0.6c0.1,0.7,0.2,1.4,0.9,1.8c0.3,0.2,0.6,0.4,0.9,0.4    c0.6,0.1,1-0.1,1.5-0.4c0.3-0.2,0.6-0.5,0.8-0.8c0-0.1,0.1-0.3,0.1-0.4C39.2,37.5,39.2,37.5,39.3,37z"/><path d="M69.8,36c0,0-0.3-0.6-0.4-0.7c0,0-0.1-0.1-0.1-0.2c0,0,0,0-0.1-0.1c-0.1-0.1-0.3-0.2-0.5-0.3    c-0.4-0.1-0.5-0.1-0.3-0.1c0.1,0,0.1,0,0,0c-0.3-0.2-0.7-0.2-1.1-0.1c-0.7,0.1-1.3,0.6-1.5,1.2c-0.2,0.3-0.3,0.7-0.3,1.1    c0.1,1.5,1.9,2.6,3.3,1.7c0.5-0.3,0.9-1,1-1.5C70,36.7,69.9,36.3,69.8,36z"/><path d="M49.4,57.1c0.2,0.2,0.5,0.1,0.6-0.1c1-1.1,0.7-5.1,3.2-4.2c1.9,0.7,2.5,2.5,3.4,4.1c0,0.1,0.2,0.1,0.2,0    c0.8-2.5-1.7-5.9-4.3-6c-1.4-0.1-2.4,1-3.1,2.2C48.9,54.3,48.4,56.2,49.4,57.1z"/></g><g display="inline"><path d="M87.8,29.7c-0.5,0-1,0.1-1.4,0.3c-0.5-2.5-1.4-4.9-2.5-7.2C80.8,16.5,75.4,11.5,69,8.5    c0.7,0,1.5,0.2,1.9,0.2c0.8,0,1.8-0.1,2.6-0.3C75,8,76.2,7.3,77.2,6.2c0.8-0.8-0.5-1.9-1.3-1.1c-2.2,2-4.6,1.7-7.3,1.8    c-0.1-0.1-0.3-0.2-0.4-0.3c1.5-1.1,2.7-2.6,3.4-4.4c0.4-0.9-0.8-1.6-1.4-0.9c-1.4,1.3-2.7,2.6-4.6,3.3c-1.5,0.6-3.1,0.7-4.7,1.1    c-5.7-1.1-11.7-0.7-17,1.6c-10.1,2-19.2,9.2-23.2,18.9c-0.7,1.7-1.2,3.6-1.6,5.4c-2.2-0.3-4.4-0.1-6.4,0.6    c-3.2,1.1-5.2,5.7-0.9,6.8c0.9,0.2,1.1-1.1,0.2-1.4c-0.3-2.4,0.4-3.8,2.1-4c0.6-0.2,1.2-0.3,1.9-0.4c1-0.1,1.9-0.1,2.8,0    c-1.7,12.1,3.5,25.2,13.4,32.3c-0.7,3.3-2.3,6.2-1.6,9.7c0.5,2.4,2,4.4,4,5.8c5.1,3.6,13.1,4.9,19.2,5.1c3,0.1,6-0.2,8.9-1.1    c0,0,0,0,0,0c1.4,0.7,1.7,4.1,1.6,5.4c0,0.3,0.2,0.6,0.5,0.7c0.4,1.4-1.4,8.4,1.6,7.7c1.2-0.3,1.4-2,1.7-3c0,0,0-0.1,0-0.1    c0.4,1,1,2.5,2.3,2.3c0.9-0.1,1.3-0.9,1.5-1.8c0.1,0.3,0.1,0.5,0.2,0.8c0.4,0.8,1.3,1.2,2,0.5c1.1-1,1.4-3.5,1.6-4.9    c0-0.2,0-0.4,0-0.5c0,0.1,0,0.1,0.1,0.2c0.2,0.8,0.3,2.1,0.7,2.8c0.6,0.9,1.4,0.7,2-0.1c0.5-0.8,0.7-2.3,0.8-3.2    c0.1-0.4,0.1-0.8,0.1-1.2c0.3,0.5,1.1,0.6,1.4,0c0.6-1.4,0.6-3.2,0.2-4.7c-0.4-1.6-1.6-2.4-2.2-3.8c-0.3-0.5-0.6-0.8-0.9-0.8    c-0.5-2.1-2.5-3.8-4.4-5.1c1.8-3.7,2-7.9,0.2-11.7c0.6-0.4,1.1-0.9,1.6-1.3c8.7-7.7,12.9-20,11.1-31.5c1.9-0.7,2,1,2.3,2.4    c0.1,0.5,0.8,0.9,1.2,0.4C91.5,32.7,90.3,29.7,87.8,29.7z M64.9,9.5c0,0.1,0,0.2,0,0.3c-1-0.4-2.1-0.8-3.1-1.2    C62.9,8.9,63.9,9.2,64.9,9.5z M52.3,8.4c-0.1,0.4,0,0.9,0.5,1.2c0.1,0.1,0.2,0.1,0.3,0.2c-0.8-0.5-1.5-1-2-1.4    C51.5,8.4,51.9,8.4,52.3,8.4z M47.8,8.9c0,0.2,0.1,0.5,0.3,0.7c0.1,0.1,0.2,0.2,0.2,0.3c-0.5-0.2-1-0.5-1.5-0.7    C47.2,9,47.5,9,47.8,8.9z M42.7,10c0.3,0.3,0.7,0.4,1.2,0.2c0.2-0.1,0.3-0.1,0.5-0.2c2.3,1.6,4.7,3.2,7.1,4.6    c0.8,0.5,1.8-0.2,1.9-1.1c2.3,1.4,4.7,2.4,6.4,1.3c0.5-0.3,0.7-1,0.6-1.5c0.5,0.2,1,0.5,1.4,0.7c1.4,0.6,2.4,1.4,3.9,1    c0.5-0.1,0.9-0.6,0.9-1.1c0-0.3,0-0.6-0.1-0.9c1.6,0.5,3.3,1,4.9,1.4c0.6,0.1,1.1-0.3,1.3-0.8c2.4,1.7,4.5,3.7,6.3,6.1    C81.7,23,83.3,26.9,84,31c-0.3,0.2-0.7,0.4-1,0.6c-0.8,0.4-1.6,0.9-2.4,1.4c-0.5,0.3-1.2,0.9-1.9,1.3c-0.3-2.9-1.3-5.6-3.2-7.3    c-0.2-0.2-0.4-0.2-0.6-0.3c-3.3-4-10.4-4.1-14.1-0.6c-2.5,2.3-3.5,5.7-3.4,9.1c-0.7-0.8-1.7-1.3-2.7-1.5c-1.5-0.3-3-0.1-4.4,0.5    c-0.7,0.3-1.2,0.7-1.9,1.2c-0.2,0.2-0.5,0.4-0.7,0.6c-0.3-4-2.3-7.8-5.5-10.3c-0.4-0.3-0.9-0.1-1.1,0.2c-3.8-2.3-8.7-2.4-12,1.5    c-1.7,2-2.7,4.5-3,7.2c-1.2-1.1-2.8-2-4.4-2.5C23.8,21.2,32.5,13.2,42.7,10z M75.7,40.8C74,47.9,66.1,49,61.9,43    c-2.7-3.9-3.5-10.5-0.4-14.4c3.7-4.7,8.3-2.5,12.4-0.4c0,0.1,0.1,0.1,0.1,0.2C76.7,32.2,76.8,36.3,75.7,40.8z M45.8,38.2    c0,0.5-0.1,0.9-0.2,1.4c-1.4,6.2-9,9.7-14.1,5.3c-3.9-3.4-4.3-9.5-2.1-13.9c2.7-5.5,8.2-5.2,12.7-2.8c2.1,2.8,3.8,5.8,3.8,9.3    C45.7,37.6,45.7,37.9,45.8,38.2z M38.2,80.5c-2.3-0.9-4.8-2.3-5.4-4.9c-0.7-2.6-0.2-6.2,1.2-8.7c1.5,0.9,3.1,1.7,4.7,2.4    c-0.5,2.2-1.7,4.1-1.6,6.4C37.1,77.5,37.5,79,38.2,80.5z M48,77.4c0,1.8-0.1,3.7-0.1,5.5c-2.8-0.4-5.6-1.1-8.2-1.9    c-0.9-3-1.5-8.8,0.7-11.1c2.4,0.9,5,1.4,7.5,1.7C48.6,73.3,48,75.7,48,77.4z M58.7,83c-1.7,0.3-3.3,0.5-4.9,0.5    c-1.5,0-3-0.2-4.5-0.3c0.2-1.9,0.3-3.8,0.4-5.7c0.1-1.7-0.2-4,0.4-5.6c3.3,0.2,6.6-0.1,9.9-0.8c1,1.4,0.9,4.2,0.9,5.7    c0,2.3-0.6,4-2,5.8C58.8,82.7,58.7,82.9,58.7,83z M60.7,82.5c0.8-1.9,1.5-3.9,1.7-5.9c0.1-1,0-2.1-0.1-3.1    c-0.1-0.9-0.5-1.9-0.7-2.8c2-0.5,4-1.2,5.9-2.1c1.3,1.3,1.5,4.5,1.4,5.9c-0.2,1.8-0.7,3.4-1.7,4.8C65.3,80.7,63,81.8,60.7,82.5z     M70.3,71.1C70.1,70,69.3,69,68.8,68c0.9-0.5,1.9-1,2.7-1.6c1.5,4,0.6,7.5-1.5,10.2c0.3-0.8,0.5-1.7,0.5-2.6    C70.6,73,70.5,72.1,70.3,71.1z M66.7,96.6c-0.1,0.3-0.2,1.4-0.1,0.3c0-0.4-0.1-0.8-0.1-1.3c-0.1-1.2-0.1-3.1,0.6-4.1    c0.1-0.1,0.1-0.2,0.2-0.3c0,0,0.1,0,0.1,0C67.3,93.1,67,94.8,66.7,96.6z M70.9,93.4c0,0.4-0.2,3.1-0.6,2.9c-0.5-0.3-0.7-2-0.8-2.5    c-0.2-0.9-0.2-1.7-0.3-2.6c0.1-0.1,0.1-0.2,0.2-0.2c0.4-0.1,0.9-0.2,1.3-0.4C70.9,91.4,70.9,92.4,70.9,93.4z M73.9,95.5    c-0.1,0.2-0.1,0.4-0.2,0.5c-0.1-0.6-0.1-1.1-0.2-1.7c-0.2-1.1-1-3.4-0.5-4.5c0.1-0.2,0.1-0.4,0.2-0.6c0.3-0.2,0.6-0.4,0.9-0.6    c0.1,0.9,0.4,1.9,0.4,2.8C74.5,93,74.3,94.3,73.9,95.5z M78.1,84.2c1.7,1,1.9,3.5,1.7,5.4c0-0.2,0-0.5-0.1-0.7    c-0.3-1.5-1-2.7-2.1-3.6C77.8,84.9,77.9,84.5,78.1,84.2z M75.7,88.2c0.1-0.3,0.1-0.5,0.1-0.8c0.3-0.3,0.6-0.6,0.9-0.9    c1.3,1,1.8,2.4,1.8,4c0,0.6-0.1,2.5-0.5,3.6c-0.2-0.8-0.4-1.8-0.7-2.6C77.1,91,75.6,88.5,75.7,88.2z M75.3,80.9    c0.9,2-0.1,3.5-1.5,4.9c-2,1.9-4.8,3.1-7.5,3.6c-0.1-0.7-0.2-1.4-0.4-2.2c-0.2-0.8-0.9-1.8-1.1-2.7c2.4-1,4.6-2.3,6.4-4.2    c0.7-0.7,1.2-1.4,1.7-2.2C73.7,78.9,74.8,80,75.3,80.9z M77.5,57.1C68.7,68.4,52,72.2,39,66.3C26.8,60.8,19.6,47,21.4,33.9    c1.6,0.5,3.1,1.2,4.6,1.8c-0.2,3.6,0.9,7.4,3.3,9.9c4.6,4.9,12.6,4.3,16.4-1.3c1.1-1.6,1.7-3.3,1.9-5.1c0.3-0.1,0.6-0.4,0.6-1    c0.1-0.6,1.4-1.4,1.7-1.7c1-0.6,2-0.9,3.2-0.9c2.4,0.1,2.8,1.5,4,3.2c0.2,0.2,0.5,0.3,0.7,0.3c0.6,2.3,1.6,4.4,3,6    c3.8,4.5,11.4,5.8,15.2,0.5c1.7-2.3,2.6-5.9,2.7-9.4c0.9-1.5,4-2.8,5.4-3.4C85.3,41.4,82.7,50.4,77.5,57.1z"/><path d="M42.8,16.7c-0.7,0.1-1.5,0.1-2.2,0.2c-0.3,0-0.6,0-0.9,0.1c0.2-0.3,0.4-0.7,0.5-0.8    c0.5-0.7,0.6-1.2,1-1.9c0.2-0.3-0.2-0.5-0.4-0.4c-0.7,0.4-0.9,0.3-1.5,0.8c-0.5,0.4-0.9,0.9-1.3,1.4c-0.5,0.6-1.1,1.2-0.8,2.1    c0.3,0.7,0.9,0.9,1.5,0.9c0.7,0,1.5-0.1,2.3-0.2c-0.7,1-1.4,1.9-1.8,3c-0.3,0.8,0.6,1.4,1.2,0.8c1.3-1.2,2-3,3.1-4.4    C44.1,17.6,43.6,16.6,42.8,16.7z"/><path d="M39.3,37c0-0.2,0-0.3,0-0.5c0-0.3,0-0.5-0.1-0.8c-0.1-0.3-0.2-0.5-0.4-0.7c-0.1-0.2-0.3-0.4-0.5-0.5    c-0.3-0.2-0.6-0.3-1-0.4c0,0,0,0,0,0c0,0-0.1,0-0.1,0c-0.6-0.1-1.2,0.2-1.5,0.7c-0.2,0.1-0.3,0.3-0.4,0.5    c-0.1,0.4-0.2,0.5-0.1,0.3c0.1-0.2,0-0.1-0.1,0.3c0,0.2,0,0.4,0,0.6c0,0.1,0,0.1,0,0.2c-0.1,0.1-0.2,0.1-0.3,0.3    c-0.6,0.7-1.7,0.8-2.4,1.4c-0.7,0.7-1.1,1.5-1.3,2.4c-0.3,1.4,0.3,2.9,1.7,3.5c3.3,1.5,5.1-2.6,4.7-5.5c0.3-0.1,0.6-0.2,0.9-0.4    c0.3-0.2,0.6-0.5,0.8-0.8c0-0.1,0.1-0.3,0.1-0.4C39.2,37.5,39.2,37.5,39.3,37z M36.1,40.7c-0.2,1.1-1,2.7-2.3,2.2    c-0.9-0.3-1.3-1.5-0.9-2.3c0.3-0.6,1.6-2,2.4-1.7c0.3,0.1,0.6,0.1,0.8,0C36.1,39.5,36.2,40.1,36.1,40.7z"/><path d="M69.6,37.7c0.1-0.2,0.2-0.5,0.3-0.7c0.1-0.4,0-0.7-0.1-1c0,0-0.3-0.6-0.4-0.7c0,0-0.1-0.1-0.1-0.2    c0,0,0,0-0.1-0.1c-0.1-0.1-0.3-0.2-0.5-0.3c-0.4-0.1-0.5-0.1-0.3-0.1c0.1,0,0.1,0,0,0c-0.3-0.2-0.7-0.2-1.1-0.1    c-0.7,0.1-1.3,0.6-1.5,1.2c-0.2,0.3-0.3,0.7-0.3,1.1c0.1,1,0.9,1.8,1.8,2c0.1,0.1,0.2,0.2,0.4,0.3c0.2,0.1,0.4,0.8,0.5,1.1    c0.2,0.4,0.3,0.8,0.5,1.3c0.3,0.7,0.6,1.4,1.2,1.8c0.6,0.4,1.3,0.6,2,0.5c0.7-0.2,1-0.6,1.3-1.2C74.6,40.4,72,38.2,69.6,37.7z     M72,42c-0.8,1.2-2.3-1.7-2.7-2.9c0.4,0.1,0.8,0.2,1.1,0.4C71.1,39.9,72.7,41.1,72,42z"/><path d="M49.4,57.1c0.2,0.2,0.5,0.1,0.6-0.1c1-1.1,0.7-5.1,3.2-4.2c1.9,0.7,2.5,2.5,3.4,4.1c0,0.1,0.2,0.1,0.2,0    c0.8-2.5-1.7-5.9-4.3-6c-1.4-0.1-2.4,1-3.1,2.2C48.9,54.3,48.4,56.2,49.4,57.1z"/></g><g display="inline"><path d="M87.8,29.7c-0.5,0-1,0.1-1.4,0.3c-0.5-2.5-1.4-4.9-2.5-7.2C80.8,16.5,75.4,11.5,69,8.5    c0.7,0,1.5,0.2,1.9,0.2c0.8,0,1.8-0.1,2.6-0.3C75,8,76.2,7.3,77.2,6.2c0.8-0.8-0.5-1.9-1.3-1.1c-2.2,2-4.6,1.7-7.3,1.8    c-0.1-0.1-0.3-0.2-0.4-0.3c1.5-1.1,2.7-2.6,3.4-4.4c0.4-0.9-0.8-1.6-1.4-0.9c-1.4,1.3-2.7,2.6-4.6,3.3c-1.5,0.6-3.1,0.7-4.7,1.1    c-5.7-1.1-11.7-0.7-17,1.6c-10.1,2-19.2,9.2-23.2,18.9c-0.7,1.7-1.2,3.6-1.6,5.4c-2.2-0.3-4.4-0.1-6.4,0.6    c-3.2,1.1-5.2,5.7-0.9,6.8c0.9,0.2,1.1-1.1,0.2-1.4c-0.3-2.4,0.4-3.8,2.1-4c0.6-0.2,1.2-0.3,1.9-0.4c1-0.1,1.9-0.1,2.8,0    c-1.7,12.1,3.5,25.2,13.4,32.3c-0.7,3.3-2.3,6.2-1.6,9.7c0.5,2.4,2,4.4,4,5.8c5.1,3.6,13.1,4.9,19.2,5.1c3,0.1,6-0.2,8.9-1.1    c0,0,0,0,0,0c1.4,0.7,1.7,4.1,1.6,5.4c0,0.3,0.2,0.6,0.5,0.7c0.4,1.4-1.4,8.4,1.6,7.7c1.2-0.3,1.4-2,1.7-3c0,0,0-0.1,0-0.1    c0.4,1,1,2.5,2.3,2.3c0.9-0.1,1.3-0.9,1.5-1.8c0.1,0.3,0.1,0.5,0.2,0.8c0.4,0.8,1.3,1.2,2,0.5c1.1-1,1.4-3.5,1.6-4.9    c0-0.2,0-0.4,0-0.5c0,0.1,0,0.1,0.1,0.2c0.2,0.8,0.3,2.1,0.7,2.8c0.6,0.9,1.4,0.7,2-0.1c0.5-0.8,0.7-2.3,0.8-3.2    c0.1-0.4,0.1-0.8,0.1-1.2c0.3,0.5,1.1,0.6,1.4,0c0.6-1.4,0.6-3.2,0.2-4.7c-0.4-1.6-1.6-2.4-2.2-3.8c-0.3-0.5-0.6-0.8-0.9-0.8    c-0.5-2.1-2.5-3.8-4.4-5.1c1.8-3.7,2-7.9,0.2-11.7c0.6-0.4,1.1-0.9,1.6-1.3c8.7-7.7,12.9-20,11.1-31.5c1.9-0.7,2,1,2.3,2.4    c0.1,0.5,0.8,0.9,1.2,0.4C91.5,32.7,90.3,29.7,87.8,29.7z M64.9,9.5c0,0.1,0,0.2,0,0.3c-1-0.4-2.1-0.8-3.1-1.2    C62.9,8.9,63.9,9.2,64.9,9.5z M52.3,8.4c-0.1,0.4,0,0.9,0.5,1.2c0.1,0.1,0.2,0.1,0.3,0.2c-0.8-0.5-1.5-1-2-1.4    C51.5,8.4,51.9,8.4,52.3,8.4z M47.8,8.9c0,0.2,0.1,0.5,0.3,0.7c0.1,0.1,0.2,0.2,0.2,0.3c-0.5-0.2-1-0.5-1.5-0.7    C47.2,9,47.5,9,47.8,8.9z M42.7,10c0.3,0.3,0.7,0.4,1.2,0.2c0.2-0.1,0.3-0.1,0.5-0.2c2.3,1.6,4.7,3.2,7.1,4.6    c0.8,0.5,1.8-0.2,1.9-1.1c2.3,1.4,4.7,2.4,6.4,1.3c0.5-0.3,0.7-1,0.6-1.5c0.5,0.2,1,0.5,1.4,0.7c1.4,0.6,2.4,1.4,3.9,1    c0.5-0.1,0.9-0.6,0.9-1.1c0-0.3,0-0.6-0.1-0.9c1.6,0.5,3.3,1,4.9,1.4c0.6,0.1,1.1-0.3,1.3-0.8c2.4,1.7,4.5,3.7,6.3,6.1    C81.7,23,83.3,26.9,84,31c-0.3,0.2-0.7,0.4-1,0.6c-0.8,0.4-1.6,0.9-2.4,1.4c-0.5,0.3-1.2,0.9-1.9,1.3c-0.3-2.9-1.3-5.6-3.2-7.3    c-0.2-0.2-0.4-0.2-0.6-0.3c-3.3-4-10.4-4.1-14.1-0.6c-2.5,2.3-3.5,5.7-3.4,9.1c-0.7-0.8-1.7-1.3-2.7-1.5c-1.5-0.3-3-0.1-4.4,0.5    c-0.7,0.3-1.2,0.7-1.9,1.2c-0.2,0.2-0.5,0.4-0.7,0.6c-0.3-4-2.3-7.8-5.5-10.3c-0.4-0.3-0.9-0.1-1.1,0.2c-3.8-2.3-8.7-2.4-12,1.5    c-1.7,2-2.7,4.5-3,7.2c-1.2-1.1-2.8-2-4.4-2.5C23.8,21.2,32.5,13.2,42.7,10z M75.7,40.8C74,47.9,66.1,49,61.9,43    c-2.7-3.9-3.5-10.5-0.4-14.4c3.7-4.7,8.3-2.5,12.4-0.4c0,0.1,0.1,0.1,0.1,0.2C76.7,32.2,76.8,36.3,75.7,40.8z M45.8,38.2    c0,0.5-0.1,0.9-0.2,1.4c-1.4,6.2-9,9.7-14.1,5.3c-3.9-3.4-4.3-9.5-2.1-13.9c2.7-5.5,8.2-5.2,12.7-2.8c2.1,2.8,3.8,5.8,3.8,9.3    C45.7,37.6,45.7,37.9,45.8,38.2z M38.2,80.5c-2.3-0.9-4.8-2.3-5.4-4.9c-0.7-2.6-0.2-6.2,1.2-8.7c1.5,0.9,3.1,1.7,4.7,2.4    c-0.5,2.2-1.7,4.1-1.6,6.4C37.1,77.5,37.5,79,38.2,80.5z M48,77.4c0,1.8-0.1,3.7-0.1,5.5c-2.8-0.4-5.6-1.1-8.2-1.9    c-0.9-3-1.5-8.8,0.7-11.1c2.4,0.9,5,1.4,7.5,1.7C48.6,73.3,48,75.7,48,77.4z M58.7,83c-1.7,0.3-3.3,0.5-4.9,0.5    c-1.5,0-3-0.2-4.5-0.3c0.2-1.9,0.3-3.8,0.4-5.7c0.1-1.7-0.2-4,0.4-5.6c3.3,0.2,6.6-0.1,9.9-0.8c1,1.4,0.9,4.2,0.9,5.7    c0,2.3-0.6,4-2,5.8C58.8,82.7,58.7,82.9,58.7,83z M60.7,82.5c0.8-1.9,1.5-3.9,1.7-5.9c0.1-1,0-2.1-0.1-3.1    c-0.1-0.9-0.5-1.9-0.7-2.8c2-0.5,4-1.2,5.9-2.1c1.3,1.3,1.5,4.5,1.4,5.9c-0.2,1.8-0.7,3.4-1.7,4.8C65.3,80.7,63,81.8,60.7,82.5z     M70.3,71.1C70.1,70,69.3,69,68.8,68c0.9-0.5,1.9-1,2.7-1.6c1.5,4,0.6,7.5-1.5,10.2c0.3-0.8,0.5-1.7,0.5-2.6    C70.6,73,70.5,72.1,70.3,71.1z M66.7,96.6c-0.1,0.3-0.2,1.4-0.1,0.3c0-0.4-0.1-0.8-0.1-1.3c-0.1-1.2-0.1-3.1,0.6-4.1    c0.1-0.1,0.1-0.2,0.2-0.3c0,0,0.1,0,0.1,0C67.3,93.1,67,94.8,66.7,96.6z M70.9,93.4c0,0.4-0.2,3.1-0.6,2.9c-0.5-0.3-0.7-2-0.8-2.5    c-0.2-0.9-0.2-1.7-0.3-2.6c0.1-0.1,0.1-0.2,0.2-0.2c0.4-0.1,0.9-0.2,1.3-0.4C70.9,91.4,70.9,92.4,70.9,93.4z M73.9,95.5    c-0.1,0.2-0.1,0.4-0.2,0.5c-0.1-0.6-0.1-1.1-0.2-1.7c-0.2-1.1-1-3.4-0.5-4.5c0.1-0.2,0.1-0.4,0.2-0.6c0.3-0.2,0.6-0.4,0.9-0.6    c0.1,0.9,0.4,1.9,0.4,2.8C74.5,93,74.3,94.3,73.9,95.5z M78.1,84.2c1.7,1,1.9,3.5,1.7,5.4c0-0.2,0-0.5-0.1-0.7    c-0.3-1.5-1-2.7-2.1-3.6C77.8,84.9,77.9,84.5,78.1,84.2z M75.7,88.2c0.1-0.3,0.1-0.5,0.1-0.8c0.3-0.3,0.6-0.6,0.9-0.9    c1.3,1,1.8,2.4,1.8,4c0,0.6-0.1,2.5-0.5,3.6c-0.2-0.8-0.4-1.8-0.7-2.6C77.1,91,75.6,88.5,75.7,88.2z M75.3,80.9    c0.9,2-0.1,3.5-1.5,4.9c-2,1.9-4.8,3.1-7.5,3.6c-0.1-0.7-0.2-1.4-0.4-2.2c-0.2-0.8-0.9-1.8-1.1-2.7c2.4-1,4.6-2.3,6.4-4.2    c0.7-0.7,1.2-1.4,1.7-2.2C73.7,78.9,74.8,80,75.3,80.9z M77.5,57.1C68.7,68.4,52,72.2,39,66.3C26.8,60.8,19.6,47,21.4,33.9    c1.6,0.5,3.1,1.2,4.6,1.8c-0.2,3.6,0.9,7.4,3.3,9.9c4.6,4.9,12.6,4.3,16.4-1.3c1.1-1.6,1.7-3.3,1.9-5.1c0.3-0.1,0.6-0.4,0.6-1    c0.1-0.6,1.4-1.4,1.7-1.7c1-0.6,2-0.9,3.2-0.9c2.4,0.1,2.8,1.5,4,3.2c0.2,0.2,0.5,0.3,0.7,0.3c0.6,2.3,1.6,4.4,3,6    c3.8,4.5,11.4,5.8,15.2,0.5c1.7-2.3,2.6-5.9,2.7-9.4c0.9-1.5,4-2.8,5.4-3.4C85.3,41.4,82.7,50.4,77.5,57.1z"/><path d="M42.8,16.7c-0.7,0.1-1.5,0.1-2.2,0.2c-0.3,0-0.6,0-0.9,0.1c0.2-0.3,0.4-0.7,0.5-0.8c0.5-0.7,0.6-1.2,1-1.9    c0.2-0.3-0.2-0.5-0.4-0.4c-0.7,0.4-0.9,0.3-1.5,0.8c-0.5,0.4-0.9,0.9-1.3,1.4c-0.5,0.6-1.1,1.2-0.8,2.1c0.3,0.7,0.9,0.9,1.5,0.9    c0.7,0,1.5-0.1,2.3-0.2c-0.7,1-1.4,1.9-1.8,3c-0.3,0.8,0.6,1.4,1.2,0.8c1.3-1.2,2-3,3.1-4.4C44.1,17.6,43.6,16.6,42.8,16.7z"/><path d="M39.3,37c0-0.2,0-0.3,0-0.5c0-0.3,0-0.5-0.1-0.8c-0.1-0.3-0.2-0.5-0.4-0.7c-0.1-0.2-0.3-0.4-0.5-0.5    c-0.3-0.2-0.6-0.3-1-0.4c0,0,0,0,0,0c0,0-0.1,0-0.1,0c-0.6-0.1-1.2,0.2-1.5,0.7c-0.2,0.1-0.3,0.3-0.4,0.5    c-0.1,0.4-0.2,0.5-0.1,0.3c0.1-0.2,0-0.1-0.1,0.3c0,0.2,0,0.4,0,0.6c0.1,0.7,0.2,1.4,0.9,1.8c0.3,0.2,0.6,0.4,0.9,0.4    c0.6,0.1,1-0.1,1.5-0.4c0.3-0.2,0.6-0.5,0.8-0.8c0-0.1,0.1-0.3,0.1-0.4C39.2,37.5,39.2,37.5,39.3,37z"/><path d="M69.8,36c0,0-0.3-0.6-0.4-0.7c0,0-0.1-0.1-0.1-0.2c0,0,0,0-0.1-0.1c-0.1-0.1-0.3-0.2-0.5-0.3    c-0.4-0.1-0.5-0.1-0.3-0.1c0.1,0,0.1,0,0,0c-0.3-0.2-0.7-0.2-1.1-0.1c-0.7,0.1-1.3,0.6-1.5,1.2c-0.2,0.3-0.3,0.7-0.3,1.1    c0.1,1.5,1.9,2.6,3.3,1.7c0.5-0.3,0.9-1,1-1.5C70,36.7,69.9,36.3,69.8,36z"/></g><g display="inline"><path d="M87.8,29.7c-0.5,0-1,0.1-1.4,0.3c-0.5-2.5-1.4-4.9-2.5-7.2C80.8,16.5,75.4,11.5,69,8.5    c0.7,0,1.5,0.2,1.9,0.2c0.8,0,1.8-0.1,2.6-0.3C75,8,76.2,7.3,77.2,6.2c0.8-0.8-0.5-1.9-1.3-1.1c-2.2,2-4.6,1.7-7.3,1.8    c-0.1-0.1-0.3-0.2-0.4-0.3c1.5-1.1,2.7-2.6,3.4-4.4c0.4-0.9-0.8-1.6-1.4-0.9c-1.4,1.3-2.7,2.6-4.6,3.3c-1.5,0.6-3.1,0.7-4.7,1.1    c-5.7-1.1-11.7-0.7-17,1.6c-10.1,2-19.2,9.2-23.2,18.9c-0.7,1.7-1.2,3.6-1.6,5.4c-2.2-0.3-4.4-0.1-6.4,0.6    c-3.2,1.1-5.2,5.7-0.9,6.8c0.9,0.2,1.1-1.1,0.2-1.4c-0.3-2.4,0.4-3.8,2.1-4c0.6-0.2,1.2-0.3,1.9-0.4c1-0.1,1.9-0.1,2.8,0    c-1.7,12.1,3.5,25.2,13.4,32.3c-0.7,3.3-2.3,6.2-1.6,9.7c0.5,2.4,2,4.4,4,5.8c5.1,3.6,13.1,4.9,19.2,5.1c3,0.1,6-0.2,8.9-1.1    c0,0,0,0,0,0c1.4,0.7,1.7,4.1,1.6,5.4c0,0.3,0.2,0.6,0.5,0.7c0.4,1.4-1.4,8.4,1.6,7.7c1.2-0.3,1.4-2,1.7-3c0,0,0-0.1,0-0.1    c0.4,1,1,2.5,2.3,2.3c0.9-0.1,1.3-0.9,1.5-1.8c0.1,0.3,0.1,0.5,0.2,0.8c0.4,0.8,1.3,1.2,2,0.5c1.1-1,1.4-3.5,1.6-4.9    c0-0.2,0-0.4,0-0.5c0,0.1,0,0.1,0.1,0.2c0.2,0.8,0.3,2.1,0.7,2.8c0.6,0.9,1.4,0.7,2-0.1c0.5-0.8,0.7-2.3,0.8-3.2    c0.1-0.4,0.1-0.8,0.1-1.2c0.3,0.5,1.1,0.6,1.4,0c0.6-1.4,0.6-3.2,0.2-4.7c-0.4-1.6-1.6-2.4-2.2-3.8c-0.3-0.5-0.6-0.8-0.9-0.8    c-0.5-2.1-2.5-3.8-4.4-5.1c1.8-3.7,2-7.9,0.2-11.7c0.6-0.4,1.1-0.9,1.6-1.3c8.7-7.7,12.9-20,11.1-31.5c1.9-0.7,2,1,2.3,2.4    c0.1,0.5,0.8,0.9,1.2,0.4C91.5,32.7,90.3,29.7,87.8,29.7z M64.9,9.5c0,0.1,0,0.2,0,0.3c-1-0.4-2.1-0.8-3.1-1.2    C62.9,8.9,63.9,9.2,64.9,9.5z M52.3,8.4c-0.1,0.4,0,0.9,0.5,1.2c0.1,0.1,0.2,0.1,0.3,0.2c-0.8-0.5-1.5-1-2-1.4    C51.5,8.4,51.9,8.4,52.3,8.4z M47.8,8.9c0,0.2,0.1,0.5,0.3,0.7c0.1,0.1,0.2,0.2,0.2,0.3c-0.5-0.2-1-0.5-1.5-0.7    C47.2,9,47.5,9,47.8,8.9z M42.7,10c0.3,0.3,0.7,0.4,1.2,0.2c0.2-0.1,0.3-0.1,0.5-0.2c2.3,1.6,4.7,3.2,7.1,4.6    c0.8,0.5,1.8-0.2,1.9-1.1c2.3,1.4,4.7,2.4,6.4,1.3c0.5-0.3,0.7-1,0.6-1.5c0.5,0.2,1,0.5,1.4,0.7c1.4,0.6,2.4,1.4,3.9,1    c0.5-0.1,0.9-0.6,0.9-1.1c0-0.3,0-0.6-0.1-0.9c1.6,0.5,3.3,1,4.9,1.4c0.6,0.1,1.1-0.3,1.3-0.8c2.4,1.7,4.5,3.7,6.3,6.1    C81.7,23,83.3,26.9,84,31c-0.3,0.2-0.7,0.4-1,0.6c-0.8,0.4-1.6,0.9-2.4,1.4c-0.5,0.3-1.2,0.9-1.9,1.3c-0.3-2.9-1.3-5.6-3.2-7.3    c-0.2-0.2-0.4-0.2-0.6-0.3c-3.3-4-10.4-4.1-14.1-0.6c-2.5,2.3-3.5,5.7-3.4,9.1c-0.7-0.8-1.7-1.3-2.7-1.5c-1.5-0.3-3-0.1-4.4,0.5    c-0.7,0.3-1.2,0.7-1.9,1.2c-0.2,0.2-0.5,0.4-0.7,0.6c-0.3-4-2.3-7.8-5.5-10.3c-0.4-0.3-0.9-0.1-1.1,0.2c-3.8-2.3-8.7-2.4-12,1.5    c-1.7,2-2.7,4.5-3,7.2c-1.2-1.1-2.8-2-4.4-2.5C23.8,21.2,32.5,13.2,42.7,10z M75.7,40.8C74,47.9,66.1,49,61.9,43    c-2.7-3.9-3.5-10.5-0.4-14.4c3.7-4.7,8.3-2.5,12.4-0.4c0,0.1,0.1,0.1,0.1,0.2C76.7,32.2,76.8,36.3,75.7,40.8z M45.8,38.2    c0,0.5-0.1,0.9-0.2,1.4c-1.4,6.2-9,9.7-14.1,5.3c-3.9-3.4-4.3-9.5-2.1-13.9c2.7-5.5,8.2-5.2,12.7-2.8c2.1,2.8,3.8,5.8,3.8,9.3    C45.7,37.6,45.7,37.9,45.8,38.2z M38.2,80.5c-2.3-0.9-4.8-2.3-5.4-4.9c-0.7-2.6-0.2-6.2,1.2-8.7c1.5,0.9,3.1,1.7,4.7,2.4    c-0.5,2.2-1.7,4.1-1.6,6.4C37.1,77.5,37.5,79,38.2,80.5z M48,77.4c0,1.8-0.1,3.7-0.1,5.5c-2.8-0.4-5.6-1.1-8.2-1.9    c-0.9-3-1.5-8.8,0.7-11.1c2.4,0.9,5,1.4,7.5,1.7C48.6,73.3,48,75.7,48,77.4z M58.7,83c-1.7,0.3-3.3,0.5-4.9,0.5    c-1.5,0-3-0.2-4.5-0.3c0.2-1.9,0.3-3.8,0.4-5.7c0.1-1.7-0.2-4,0.4-5.6c3.3,0.2,6.6-0.1,9.9-0.8c1,1.4,0.9,4.2,0.9,5.7    c0,2.3-0.6,4-2,5.8C58.8,82.7,58.7,82.9,58.7,83z M60.7,82.5c0.8-1.9,1.5-3.9,1.7-5.9c0.1-1,0-2.1-0.1-3.1    c-0.1-0.9-0.5-1.9-0.7-2.8c2-0.5,4-1.2,5.9-2.1c1.3,1.3,1.5,4.5,1.4,5.9c-0.2,1.8-0.7,3.4-1.7,4.8C65.3,80.7,63,81.8,60.7,82.5z     M70.3,71.1C70.1,70,69.3,69,68.8,68c0.9-0.5,1.9-1,2.7-1.6c1.5,4,0.6,7.5-1.5,10.2c0.3-0.8,0.5-1.7,0.5-2.6    C70.6,73,70.5,72.1,70.3,71.1z M66.7,96.6c-0.1,0.3-0.2,1.4-0.1,0.3c0-0.4-0.1-0.8-0.1-1.3c-0.1-1.2-0.1-3.1,0.6-4.1    c0.1-0.1,0.1-0.2,0.2-0.3c0,0,0.1,0,0.1,0C67.3,93.1,67,94.8,66.7,96.6z M70.9,93.4c0,0.4-0.2,3.1-0.6,2.9c-0.5-0.3-0.7-2-0.8-2.5    c-0.2-0.9-0.2-1.7-0.3-2.6c0.1-0.1,0.1-0.2,0.2-0.2c0.4-0.1,0.9-0.2,1.3-0.4C70.9,91.4,70.9,92.4,70.9,93.4z M73.9,95.5    c-0.1,0.2-0.1,0.4-0.2,0.5c-0.1-0.6-0.1-1.1-0.2-1.7c-0.2-1.1-1-3.4-0.5-4.5c0.1-0.2,0.1-0.4,0.2-0.6c0.3-0.2,0.6-0.4,0.9-0.6    c0.1,0.9,0.4,1.9,0.4,2.8C74.5,93,74.3,94.3,73.9,95.5z M78.1,84.2c1.7,1,1.9,3.5,1.7,5.4c0-0.2,0-0.5-0.1-0.7    c-0.3-1.5-1-2.7-2.1-3.6C77.8,84.9,77.9,84.5,78.1,84.2z M75.7,88.2c0.1-0.3,0.1-0.5,0.1-0.8c0.3-0.3,0.6-0.6,0.9-0.9    c1.3,1,1.8,2.4,1.8,4c0,0.6-0.1,2.5-0.5,3.6c-0.2-0.8-0.4-1.8-0.7-2.6C77.1,91,75.6,88.5,75.7,88.2z M75.3,80.9    c0.9,2-0.1,3.5-1.5,4.9c-2,1.9-4.8,3.1-7.5,3.6c-0.1-0.7-0.2-1.4-0.4-2.2c-0.2-0.8-0.9-1.8-1.1-2.7c2.4-1,4.6-2.3,6.4-4.2    c0.7-0.7,1.2-1.4,1.7-2.2C73.7,78.9,74.8,80,75.3,80.9z M77.5,57.1C68.7,68.4,52,72.2,39,66.3C26.8,60.8,19.6,47,21.4,33.9    c1.6,0.5,3.1,1.2,4.6,1.8c-0.2,3.6,0.9,7.4,3.3,9.9c4.6,4.9,12.6,4.3,16.4-1.3c1.1-1.6,1.7-3.3,1.9-5.1c0.3-0.1,0.6-0.4,0.6-1    c0.1-0.6,1.4-1.4,1.7-1.7c1-0.6,2-0.9,3.2-0.9c2.4,0.1,2.8,1.5,4,3.2c0.2,0.2,0.5,0.3,0.7,0.3c0.6,2.3,1.6,4.4,3,6    c3.8,4.5,11.4,5.8,15.2,0.5c1.7-2.3,2.6-5.9,2.7-9.4c0.9-1.5,4-2.8,5.4-3.4C85.3,41.4,82.7,50.4,77.5,57.1z"/><path d="M42.8,16.7c-0.7,0.1-1.5,0.1-2.2,0.2c-0.3,0-0.6,0-0.9,0.1c0.2-0.3,0.4-0.7,0.5-0.8    c0.5-0.7,0.6-1.2,1-1.9c0.2-0.3-0.2-0.5-0.4-0.4c-0.7,0.4-0.9,0.3-1.5,0.8c-0.5,0.4-0.9,0.9-1.3,1.4c-0.5,0.6-1.1,1.2-0.8,2.1    c0.3,0.7,0.9,0.9,1.5,0.9c0.7,0,1.5-0.1,2.3-0.2c-0.7,1-1.4,1.9-1.8,3c-0.3,0.8,0.6,1.4,1.2,0.8c1.3-1.2,2-3,3.1-4.4    C44.1,17.6,43.6,16.6,42.8,16.7z"/><path d="M42.2,34.9c-2.7-2-5.3-5.3-8.9-5.9c-0.5-0.1-1.1,0.5-0.8,1c0.9,1.8,2.4,3.1,4.1,4.2    c-0.4,0.1-0.7,0.3-1,0.7c-0.2,0.1-0.3,0.3-0.4,0.5c-0.1,0.4-0.2,0.5-0.1,0.3c0.1-0.2,0-0.1-0.1,0.3c0,0.2,0,0.4,0,0.6    c0.1,0.7,0.2,1.4,0.9,1.8c0.3,0.2,0.6,0.4,0.9,0.4c0.6,0.1,1-0.1,1.5-0.4c0.3-0.2,0.6-0.5,0.8-0.8c0-0.1,0.1-0.3,0.1-0.4    c-0.1,0.3-0.1,0.3,0.1-0.2c0-0.2,0-0.3,0-0.5c0-0.2,0-0.5-0.1-0.7c0.5,0.3,0.9,0.6,1.3,0.9C41.9,37.7,43.4,35.8,42.2,34.9z"/><path d="M72.2,29.8c0-0.6-0.4-1.1-1-1.1c-1.6,0-3,1.6-4.1,2.7c-1.4,1.4-2.9,2.8-4.5,4c-1.2,1,0.1,2.9,1.4,2    c0.6-0.4,1.1-0.8,1.7-1.2c0,0.2-0.1,0.4-0.1,0.6c0.1,1.5,1.9,2.6,3.3,1.7c0.5-0.3,0.9-1,1-1.5c0.1-0.4,0-0.7-0.1-1    c0,0-0.3-0.6-0.4-0.7c0,0-0.1-0.1-0.1-0.2c0,0,0,0-0.1-0.1c-0.1-0.1-0.3-0.2-0.5-0.3c-0.4-0.1-0.5-0.1-0.3-0.1c0.1,0,0.1,0,0,0    c-0.1-0.1-0.3-0.1-0.5-0.1c0.3-0.2,0.6-0.5,0.9-0.7C70.2,32.9,72.1,31.5,72.2,29.8z"/><path d="M49.4,57.1c0.2,0.2,0.5,0.1,0.6-0.1c1-1.1,0.7-5.1,3.2-4.2c1.9,0.7,2.5,2.5,3.4,4.1c0,0.1,0.2,0.1,0.2,0    c0.8-2.5-1.7-5.9-4.3-6c-1.4-0.1-2.4,1-3.1,2.2C48.9,54.3,48.4,56.2,49.4,57.1z"/></g></g><g><g><path d="M87.8,29.7c-0.5,0-1,0.1-1.4,0.3c-0.5-2.5-1.4-4.9-2.5-7.2C80.8,16.5,75.4,11.5,69,8.5    c0.7,0,1.5,0.2,1.9,0.2c0.8,0,1.8-0.1,2.6-0.3C75,8,76.2,7.3,77.2,6.2c0.8-0.8-0.5-1.9-1.3-1.1c-2.2,2-4.6,1.7-7.3,1.8    c-0.1-0.1-0.3-0.2-0.4-0.3c1.5-1.1,2.7-2.6,3.4-4.4c0.4-0.9-0.8-1.6-1.4-0.9c-1.4,1.3-2.7,2.6-4.6,3.3c-1.5,0.6-3.1,0.7-4.7,1.1    c-5.7-1.1-11.7-0.7-17,1.6c-10.1,2-19.2,9.2-23.2,18.9c-0.7,1.7-1.2,3.6-1.6,5.4c-2.2-0.3-4.4-0.1-6.4,0.6    c-3.2,1.1-5.2,5.7-0.9,6.8c0.9,0.2,1.1-1.1,0.2-1.4c-0.3-2.4,0.4-3.8,2.1-4c0.6-0.2,1.2-0.3,1.9-0.4c1-0.1,1.9-0.1,2.8,0    c-1.7,12.1,3.5,25.2,13.4,32.3c-0.7,3.3-2.3,6.2-1.6,9.7c0.5,2.4,2,4.4,4,5.8c5.1,3.6,13.1,4.9,19.2,5.1c3,0.1,6-0.2,8.9-1.1    c0,0,0,0,0,0c1.4,0.7,1.7,4.1,1.6,5.4c0,0.3,0.2,0.6,0.5,0.7c0.4,1.4-1.4,8.4,1.6,7.7c1.2-0.3,1.4-2,1.7-3c0,0,0-0.1,0-0.1    c0.4,1,1,2.5,2.3,2.3c0.9-0.1,1.3-0.9,1.5-1.8c0.1,0.3,0.1,0.5,0.2,0.8c0.4,0.8,1.3,1.2,2,0.5c1.1-1,1.4-3.5,1.6-4.9    c0-0.2,0-0.4,0-0.5c0,0.1,0,0.1,0.1,0.2c0.2,0.8,0.3,2.1,0.7,2.8c0.6,0.9,1.4,0.7,2-0.1c0.5-0.8,0.7-2.3,0.8-3.2    c0.1-0.4,0.1-0.8,0.1-1.2c0.3,0.5,1.1,0.6,1.4,0c0.6-1.4,0.6-3.2,0.2-4.7c-0.4-1.6-1.6-2.4-2.2-3.8c-0.3-0.5-0.6-0.8-0.9-0.8    c-0.5-2.1-2.5-3.8-4.4-5.1c1.8-3.7,2-7.9,0.2-11.7c0.6-0.4,1.1-0.9,1.6-1.3c8.7-7.7,12.9-20,11.1-31.5c1.9-0.7,2,1,2.3,2.4    c0.1,0.5,0.8,0.9,1.2,0.4C91.5,32.7,90.3,29.7,87.8,29.7z M64.9,9.5c0,0.1,0,0.2,0,0.3c-1-0.4-2.1-0.8-3.1-1.2    C62.9,8.9,63.9,9.2,64.9,9.5z M52.3,8.4c-0.1,0.4,0,0.9,0.5,1.2c0.1,0.1,0.2,0.1,0.3,0.2c-0.8-0.5-1.5-1-2-1.4    C51.5,8.4,51.9,8.4,52.3,8.4z M47.8,8.9c0,0.2,0.1,0.5,0.3,0.7c0.1,0.1,0.2,0.2,0.2,0.3c-0.5-0.2-1-0.5-1.5-0.7    C47.2,9,47.5,9,47.8,8.9z M42.7,10c0.3,0.3,0.7,0.4,1.2,0.2c0.2-0.1,0.3-0.1,0.5-0.2c2.3,1.6,4.7,3.2,7.1,4.6    c0.8,0.5,1.8-0.2,1.9-1.1c2.3,1.4,4.7,2.4,6.4,1.3c0.5-0.3,0.7-1,0.6-1.5c0.5,0.2,1,0.5,1.4,0.7c1.4,0.6,2.4,1.4,3.9,1    c0.5-0.1,0.9-0.6,0.9-1.1c0-0.3,0-0.6-0.1-0.9c1.6,0.5,3.3,1,4.9,1.4c0.6,0.1,1.1-0.3,1.3-0.8c2.4,1.7,4.5,3.7,6.3,6.1    C81.7,23,83.3,26.9,84,31c-0.3,0.2-0.7,0.4-1,0.6c-0.8,0.4-1.6,0.9-2.4,1.4c-0.5,0.3-1.2,0.9-1.9,1.3c-0.3-2.9-1.3-5.6-3.2-7.3    c-0.2-0.2-0.4-0.2-0.6-0.3c-3.3-4-10.4-4.1-14.1-0.6c-2.5,2.3-3.5,5.7-3.4,9.1c-0.7-0.8-1.7-1.3-2.7-1.5c-1.5-0.3-3-0.1-4.4,0.5    c-0.7,0.3-1.2,0.7-1.9,1.2c-0.2,0.2-0.5,0.4-0.7,0.6c-0.3-4-2.3-7.8-5.5-10.3c-0.4-0.3-0.9-0.1-1.1,0.2c-3.8-2.3-8.7-2.4-12,1.5    c-1.7,2-2.7,4.5-3,7.2c-1.2-1.1-2.8-2-4.4-2.5C23.8,21.2,32.5,13.2,42.7,10z M75.7,40.8C74,47.9,66.1,49,61.9,43    c-2.7-3.9-3.5-10.5-0.4-14.4c3.7-4.7,8.3-2.5,12.4-0.4c0,0.1,0.1,0.1,0.1,0.2C76.7,32.2,76.8,36.3,75.7,40.8z M45.8,38.2    c0,0.5-0.1,0.9-0.2,1.4c-1.4,6.2-9,9.7-14.1,5.3c-3.9-3.4-4.3-9.5-2.1-13.9c2.7-5.5,8.2-5.2,12.7-2.8c2.1,2.8,3.8,5.8,3.8,9.3    C45.7,37.6,45.7,37.9,45.8,38.2z M38.2,80.5c-2.3-0.9-4.8-2.3-5.4-4.9c-0.7-2.6-0.2-6.2,1.2-8.7c1.5,0.9,3.1,1.7,4.7,2.4    c-0.5,2.2-1.7,4.1-1.6,6.4C37.1,77.5,37.5,79,38.2,80.5z M48,77.4c0,1.8-0.1,3.7-0.1,5.5c-2.8-0.4-5.6-1.1-8.2-1.9    c-0.9-3-1.5-8.8,0.7-11.1c2.4,0.9,5,1.4,7.5,1.7C48.6,73.3,48,75.7,48,77.4z M58.7,83c-1.7,0.3-3.3,0.5-4.9,0.5    c-1.5,0-3-0.2-4.5-0.3c0.2-1.9,0.3-3.8,0.4-5.7c0.1-1.7-0.2-4,0.4-5.6c3.3,0.2,6.6-0.1,9.9-0.8c1,1.4,0.9,4.2,0.9,5.7    c0,2.3-0.6,4-2,5.8C58.8,82.7,58.7,82.9,58.7,83z M60.7,82.5c0.8-1.9,1.5-3.9,1.7-5.9c0.1-1,0-2.1-0.1-3.1    c-0.1-0.9-0.5-1.9-0.7-2.8c2-0.5,4-1.2,5.9-2.1c1.3,1.3,1.5,4.5,1.4,5.9c-0.2,1.8-0.7,3.4-1.7,4.8C65.3,80.7,63,81.8,60.7,82.5z     M70.3,71.1C70.1,70,69.3,69,68.8,68c0.9-0.5,1.9-1,2.7-1.6c1.5,4,0.6,7.5-1.5,10.2c0.3-0.8,0.5-1.7,0.5-2.6    C70.6,73,70.5,72.1,70.3,71.1z M66.7,96.6c-0.1,0.3-0.2,1.4-0.1,0.3c0-0.4-0.1-0.8-0.1-1.3c-0.1-1.2-0.1-3.1,0.6-4.1    c0.1-0.1,0.1-0.2,0.2-0.3c0,0,0.1,0,0.1,0C67.3,93.1,67,94.8,66.7,96.6z M70.9,93.4c0,0.4-0.2,3.1-0.6,2.9c-0.5-0.3-0.7-2-0.8-2.5    c-0.2-0.9-0.2-1.7-0.3-2.6c0.1-0.1,0.1-0.2,0.2-0.2c0.4-0.1,0.9-0.2,1.3-0.4C70.9,91.4,70.9,92.4,70.9,93.4z M73.9,95.5    c-0.1,0.2-0.1,0.4-0.2,0.5c-0.1-0.6-0.1-1.1-0.2-1.7c-0.2-1.1-1-3.4-0.5-4.5c0.1-0.2,0.1-0.4,0.2-0.6c0.3-0.2,0.6-0.4,0.9-0.6    c0.1,0.9,0.4,1.9,0.4,2.8C74.5,93,74.3,94.3,73.9,95.5z M78.1,84.2c1.7,1,1.9,3.5,1.7,5.4c0-0.2,0-0.5-0.1-0.7    c-0.3-1.5-1-2.7-2.1-3.6C77.8,84.9,77.9,84.5,78.1,84.2z M75.7,88.2c0.1-0.3,0.1-0.5,0.1-0.8c0.3-0.3,0.6-0.6,0.9-0.9    c1.3,1,1.8,2.4,1.8,4c0,0.6-0.1,2.5-0.5,3.6c-0.2-0.8-0.4-1.8-0.7-2.6C77.1,91,75.6,88.5,75.7,88.2z M75.3,80.9    c0.9,2-0.1,3.5-1.5,4.9c-2,1.9-4.8,3.1-7.5,3.6c-0.1-0.7-0.2-1.4-0.4-2.2c-0.2-0.8-0.9-1.8-1.1-2.7c2.4-1,4.6-2.3,6.4-4.2    c0.7-0.7,1.2-1.4,1.7-2.2C73.7,78.9,74.8,80,75.3,80.9z M77.5,57.1C68.7,68.4,52,72.2,39,66.3C26.8,60.8,19.6,47,21.4,33.9    c1.6,0.5,3.1,1.2,4.6,1.8c-0.2,3.6,0.9,7.4,3.3,9.9c4.6,4.9,12.6,4.3,16.4-1.3c1.1-1.6,1.7-3.3,1.9-5.1c0.3-0.1,0.6-0.4,0.6-1    c0.1-0.6,1.4-1.4,1.7-1.7c1-0.6,2-0.9,3.2-0.9c2.4,0.1,2.8,1.5,4,3.2c0.2,0.2,0.5,0.3,0.7,0.3c0.6,2.3,1.6,4.4,3,6    c3.8,4.5,11.4,5.8,15.2,0.5c1.7-2.3,2.6-5.9,2.7-9.4c0.9-1.5,4-2.8,5.4-3.4C85.3,41.4,82.7,50.4,77.5,57.1z"/><path d="M42.8,16.7c-0.7,0.1-1.5,0.1-2.2,0.2c-0.3,0-0.6,0-0.9,0.1c0.2-0.3,0.4-0.7,0.5-0.8c0.5-0.7,0.6-1.2,1-1.9    c0.2-0.3-0.2-0.5-0.4-0.4c-0.7,0.4-0.9,0.3-1.5,0.8c-0.5,0.4-0.9,0.9-1.3,1.4c-0.5,0.6-1.1,1.2-0.8,2.1c0.3,0.7,0.9,0.9,1.5,0.9    c0.7,0,1.5-0.1,2.3-0.2c-0.7,1-1.4,1.9-1.8,3c-0.3,0.8,0.6,1.4,1.2,0.8c1.3-1.2,2-3,3.1-4.4C44.1,17.6,43.6,16.6,42.8,16.7z"/><path d="M69.8,36c0,0-0.3-0.6-0.4-0.7c0,0-0.1-0.1-0.1-0.2c0,0,0,0-0.1-0.1c-0.1-0.1-0.3-0.2-0.5-0.3    c-0.4-0.1-0.5-0.1-0.3-0.1c0.1,0,0.1,0,0,0c-0.3-0.2-0.7-0.2-1.1-0.1c-0.7,0.1-1.3,0.6-1.5,1.2c-0.2,0.3-0.3,0.7-0.3,1.1    c0.1,1.5,1.9,2.6,3.3,1.7c0.5-0.3,0.9-1,1-1.5C70,36.7,69.9,36.3,69.8,36z"/><path d="M56.4,51.1c-0.2-0.2-0.5-0.1-0.6,0.1c-1,1.1-0.7,5.1-3.2,4.2c-1.9-0.7-2.5-2.5-3.4-4.1    c0-0.1-0.2-0.1-0.2,0c-0.8,2.5,1.7,5.9,4.3,6c1.4,0.1,2.4-1,3.1-2.2C56.9,54,57.5,52,56.4,51.1z"/><path d="M41,36c-0.6-0.8-1.7-1.5-2.7-1.9c-0.5-0.2-1-0.3-1.4-0.5c-0.6-0.2-1.2-0.2-1.8-0.3    c-0.2,0-0.4,0.1-0.5,0.2c0,0,0,0.1,0,0.1c0,0,0,0.1,0,0.1c0,0.1,0.1,0.3,0.3,0.4c1.3,0.5,2.5,1.4,3.6,2.2    c-0.5,0.2-1.1,0.5-1.6,0.7c-1,0.3-2.3,0.3-2.8,1.5c-0.2,0.4-0.1,1.1,0.3,1.4c1.2,0.9,2.3,0.1,3.5-0.5c1.1-0.6,2.2-1.4,3.1-2.3    C41.2,36.8,41.2,36.3,41,36z"/></g></g><text x="0" y="115" fill="#000000" font-size="5px" font-weight="bold" font-family="'Helvetica Neue', Helvetica, Arial-Unicode, Arial, Sans-serif">Created by Ilaria Bernareggi</text><text x="0" y="120" fill="#000000" font-size="5px" font-weight="bold" font-family="'Helvetica Neue', Helvetica, Arial-Unicode, Arial, Sans-serif">from the Noun Project</text></svg>